<svg width="21" height="22" viewBox="0 0 21 22" xmlns="http://www.w3.org/2000/svg">
	<symbol id="ttt">
		<path  d="M20.157 16.232l-1.12-.804a5.76 5.76 0 0 0-1.43-7.857 5.743 5.743 0 0 0-8.023 1.317 5.765 5.765 0 0 0 1.314 8.036 5.74 5.74 0 0 0 7.155-.36c.005.003.006.008.01.01l1.219.876a.5.5 0 0 0 .698-.115l.291-.406a.499.499 0 0 0-.114-.697zm-2.466-1.508a4.244 4.244 0 0 1-5.921.969 4.24 4.24 0 0 1-.97-5.919 4.244 4.244 0 0 1 5.921-.969 4.24 4.24 0 0 1 .97 5.919zM4.5 12H6a.5.5 0 0 0 .5-.5V11a.5.5 0 0 0-.5-.5H4.5a.5.5 0 0 0-.5.5v.5a.5.5 0 0 0 .5.5zm13.25 6.5a.748.748 0 0 0-.704.5H17v.5a.5.5 0 0 1-.5.5h-14a.5.5 0 0 1-.5-.5v-17a.5.5 0 0 1 .5-.5h14a.5.5 0 0 1 .5.5v3h.046c.104.29.378.5.704.5.326 0 .601-.21.704-.5h.046V2A1.5 1.5 0 0 0 17 .5H2A1.5 1.5 0 0 0 .5 2v18A1.5 1.5 0 0 0 2 21.5h15a1.5 1.5 0 0 0 1.5-1.5v-1h-.046a.747.747 0 0 0-.704-.5zM9 7v-.5a.5.5 0 0 0-.5-.5h-4a.5.5 0 0 0-.5.5V7a.5.5 0 0 0 .5.5h4A.5.5 0 0 0 9 7zm-5 9a.5.5 0 0 0 .5.5h2A.5.5 0 0 0 7 16v-.5a.5.5 0 0 0-.5-.5h-2a.5.5 0 0 0-.5.5v.5z"  fill-rule="evenodd"/>
	</symbol>
</svg>